/* XPM */
static char * box_wall_xpm[] = {
"48 48 2 1",
" 	c #5C4033",
".	c #FFFFFF",
"                                                ",
"                                                ",
"     ......................................     ",
"      ....................................      ",
"       ..................................       ",
"  .     ................................     .  ",
"  ..     ..............................     ..  ",
"  ...     ............................     ...  ",
"  ....     ..........................     ....  ",
"  .....     ........................     .....  ",
"  ......     ......................     ......  ",
"  .......     ....................     .......  ",
"  ........     ..................     ........  ",
"  .........     ................     .........  ",
"  ..........     ..............     ..........  ",
"  ...........     ............     ...........  ",
"  ............     ..........     ............  ",
"  .............     ........     .............  ",
"  ..............     ......     ..............  ",
"  ...............     ....     ...............  ",
"  ................     ..     ................  ",
"  .................          .................  ",
"  ..................        ..................  ",
"  ...................      ...................  ",
"  ...................      ...................  ",
"  ..................        ..................  ",
"  .................          .................  ",
"  ................     ..     ................  ",
"  ...............     ....     ...............  ",
"  ..............     ......     ..............  ",
"  .............     ........     .............  ",
"  ............     ..........     ............  ",
"  ...........     ............     ...........  ",
"  ..........     ..............     ..........  ",
"  .........     ................     .........  ",
"  ........     ..................     ........  ",
"  .......     ....................     .......  ",
"  ......     ......................     ......  ",
"  .....     ........................     .....  ",
"  ....     ..........................     ....  ",
"  ...     ............................     ...  ",
"  ..     ..............................     ..  ",
"  .     ................................     .  ",
"       ..................................       ",
"      ....................................      ",
"     ......................................     ",
"                                                ",
"                                                "};
