/* XPM */
static char * collectible_xpm[] = {
"48 48 62 1",
" 	c #F8F8F8",
".	c #ECECEC",
"+	c #F3F3F3",
"@	c #F9F9F9",
"#	c #F7F7F7",
"$	c #D8D8D8",
"%	c #F2F2F2",
"&	c #EAEAEA",
"*	c #D7D7D7",
"=	c #FEFEFE",
"-	c #E7E7E7",
";	c #FCFCFC",
">	c #FDFDFD",
",	c #F1F1F1",
"'	c #FAFAFA",
")	c #FFFFFF",
"!	c #E5E5E5",
"~	c #F6F6F6",
"{	c #F4F4F4",
"]	c #F5F4F4",
"^	c #F0F0F0",
"/	c #F3F2F2",
"(	c #FBFBFB",
"_	c #E8E8E8",
":	c #F5F5F5",
"<	c #F2F1F1",
"[	c #F1F0F0",
"}	c #F8F7F7",
"|	c #EEEEEE",
"1	c #EFEFEF",
"2	c #EDEDED",
"3	c #F4F3F3",
"4	c #F0EFEF",
"5	c #ECEBEB",
"6	c #E8E7E7",
"7	c #E9E9E9",
"8	c #EFEEEE",
"9	c #FCFBFB",
"0	c #FDFCFC",
"a	c #F6F5F5",
"b	c #EAE9E9",
"c	c #EEEDED",
"d	c #E4E3E3",
"e	c #EBEBEB",
"f	c #EDECEC",
"g	c #E4E4E4",
"h	c #DFDFDF",
"i	c #E2E2E2",
"j	c #E6E6E6",
"k	c #EBEAEA",
"l	c #E3E3E3",
"m	c #FBFAFA",
"n	c #F7F6F6",
"o	c #FAF9F9",
"p	c #E8E6E6",
"q	c #D5D5D5",
"r	c #E1E1E1",
"s	c #DFDEDE",
"t	c #DEDEDE",
"u	c #CCCCCC",
"v	c #DDDDDD",
"w	c #CCCBCB",
" .++++++++++++++++++++++++++++++++++@@@@@@@@@@##",
"#$%++++++++++++++++++++++++++++++++%.........&**",
"=-;>;>>======================================>,,",
"=-'@ ';=)))))))))))))))))))))))))))))))))))))=++",
";!~{%]@>)))))))))))))))))))))))))))))))))))))=++",
" -+,^%#;)))===)))=>;;>==)))))))))))))))))))))=++",
" -/^^%#;)>;((;=)=;@~~#'>=))))))))))))))))))))=++",
" _:%%{@;; ~{{#(=> +,,<:'=====)====)))))))))))=++",
"@&@ #@('~+,^[+@;({^^^^%#''@@(;(''(>))))))))))=++",
"@.>>>>;}%^^^^<:'#[|1^^,{:{++:~~{{~'>)))))))))=++",
"@.=)));:,^^^[%:~+12|^,++%,^^,%,[^%~(===))))))=++",
"@.=)));~,^^,+:~{,1^,+:~{,^^^^,^^^^/ ''';=))))=++",
"@.=)))> %^^+}'@:%+: ';;}+,[,3{%[^1^%++3~'=)))=++",
"@.=)))>@:%{#(>( ~#'>=)=(#:{~  :%,1^14^^%#>)))=++",
"@.=)))> {%{@=)>;((>=))=;(''((@#+,%^|^^^[:;)))=++",
"@.=))> %25, >))====))>(@ ''( :%<,%%,^^^,~;)))=++",
"@.=)='32-6|#>)))))))=(#+%:#~+[^^^,33%,,{@>)))=++",
"@.=);~,.77^ =)))))))='{,^%{+,^^^^%~@ ##';))))=++",
"@.==({4|22+'=)))==>=>'{,^%{+,^118% ;;;;=)))))=++",
"@.=='3^^1,~>==>(' @@'@#+%:#~+^2.2%~ '(;>=))))=++",
"@.=)9:,^,{'>>'#{<,<+:#  #'('#%1.2^</{: (=))))=++",
"@.=)> {+{ 0='a,2b.1||,: '>==; +14^|2c^{@>))))=++",
"@.=)=;'@';=> %2-d-ee7e^{@>))=(~,^^|.f^{@>))))=++",
"@.=)))===))> [eghij_-k|,:(=)>(~,^^^^%{ (=))))=++",
"@.=))))))))=@%7dil_b&21^{m=)>@{[^,{n@';>=))))=%+",
"@.=))))))))=;:277e.1^^^,:(==(:,11+};>==))))))=.@",
"@.=)))))))))>@<|1^,:~{%{#;)=@+^^^% >)))))))))=.@",
"@.=)))))))))=(~/,%:@(' @(=)='{^^^,#>)))))))))=.@",
"@.=))))))))))>( # '>==>>=))=;#%,,+@>)))))))))=.@",
"@.=))))))))==)=>;>=)))))))))=(#:: (=)))))=>>>>.@",
"@.=))))))=>;;>=)))))))==)))))=>;;>=)))))>( # 'e@",
"@.=)))))=>'  '>=)))=>(''(>=))))))))))))=':%,+~&@",
"@.=)))))=(#{{#(=))=; :++: ;=)))))))))));~,^^[3_ ",
"@.=)))))=(~%%:';>==@+,^^,{'=))))))))))=@+^^^^+_ ",
"@.=)))))=; :{:# o;;#,^^^^% >))))))))))> %^^^,{7@",
"@.=))))))>('@}{+:@(#,^1^^+@>=>;>=)))))> %^^^+#&@",
"@.=))))==>('o#{,%#'#%|21,~(;( #@(>>;>==']%%3#(e@",
"@.=))>;' #~# }:+{# ~,2e|3'>9#+<{#@ # (>;o#}@;>.@",
"@.=)>@{,^1^,+~@ a{+,^|2,#;='{,^,{{+,+#>==>>=)=.@",
"@.==({|e7&.1%n;(#%^^^^^% >='{,^%++,^,:())))))=.@",
"@.==@,&jg!72% >>#,^^^^^+@>=(#++:#{,^,~;)=>>>==.@",
"#&>>',-lilp|:'=>@+[^^^%~(=)>(@ '( {%{ >=(@#@(>.@",
"+j@((cqld!&+@>)=(#{++{#(=)))=>>==;@ @;=; +%+n'e@",
"|r{'>{22.|3o=)))=>(''(>=)))))))))==>===(:,^^%~7@",
"es% >>(#~ '=))))))===)))))))))))))))))=;a,^^,+- ",
"et, ;=>;;;>============================;#%^^^,j#",
"5usg-__...........%++++++++++++++++++++%:1.kk.v~",
":{ ;==>@@@@@@@@@@@+++++++++++++++++++++%&-lrrrw+"};
