/* XPM */
static char * collectible_xpm[] = {
"48 48 5 1",
" 	c #71B779",
".	c #72B77B",
"+	c #78B58A",
"@	c #77B587",
"#	c #70B773",
"      ...................................+++++++",
"@@@ .....................................+++++++",
"@@@++++..................................+++++++",
"@@+++++++++++...........................++++++++",
"+++++++++++++++++.......................++++++++",
"+++++++++++++++++++++++................+++++++++",
"+++++++++++++++++++++++++++..........++++++##+++",
"++++++++###+++++++++++++++++++++++++++++++++###+",
"+++++++++++++++++++++++++++++++++++++++++++++###",
"++++++++++++++++++++++++++++++++++++++++++++++##",
"+++++++++++++++++++++++++++++++++++++++++++++++#",
"++++++++++++++++++++++++++++++++++++++++++++++++",
"++++++++++++++++++++++++++++++++++++++++++++++++",
"++++++++++++++++++++++++++++++++++++++++++++++++",
"++++++++++++++++++++++++++++++++++++++++++++++++",
"++++++++++++++++++++++++++++++++++++++++++++++++",
"++++++++++++++++++++++++++++++++++++++++++++++++",
"+++++++++++++++++++++++++++++++++++++++++++++++@",
"+++++++++++++++++++++++++++++++++++++++++++++++@",
"+++++++++++++++++++++++++++++++++++++++++++++++@",
"++++++++++++++++++++++++++++++++++++++++++++++@@",
"++++++++++++++++++++++++++++++++++++++++++++++@@",
"+++++++++++++++++++++++++++++++++++++++++++++@@@",
"+++++++++++++++++++++++++++++++++++++++++++++@@@",
"++++++++++++++++++++++++++++++++++++++++++++++++",
"++++++++++++++++++++++++++++++++++++++++++++++++",
"++++++++++++++++++++++++++++++++++++++++++++++++",
"++++++++++++++++++++++++++++++++++++++++++++++++",
"++++++++++++++++++++++++++++++++++++++++++++++++",
"++++++++++++++++++++++++++++++++++++++++++++++++",
"++++++++++++++++++++++++++++++++++++++++++++++++",
"++++++++++++++++++++++++++++++++++++++++++++++++",
"++++++++++++++++++++++++++++++++++++++++++++++++",
"++++++++++++++++++++++++++++++++++++++++++++++++",
"++++++++++++++++++++++++++++++++++++++++++++++++",
"++++++++++++++++++++++++++++++++++++++++++++++++",
"++++++++++++++++++++++++++++++++++++++++++++++++",
"++++++++++++++++++++++++++++++++++++++++++++++++",
"++++++++++++++++++++++++++++++++++++++++++++++++",
"+++++++++++++++++++++++++++++++++++++++++++@@+++",
"+++++++++++++++++++++++++++++++++++++++++++@@+++",
"+++++++++++++++++++++++++++++++++++++++++++@++++",
"++++++++++++++++++++++++++++++++++++++++++++++++",
"++++++++++++++++++++++++++++++++++++++++++++++++",
"++++++++++++++++++++++++++++++++++++++++++++++++",
"++++++++++++++++++++++++++++++++++++++++++++++++",
"++++++++++++++++++++++++++++++++++++++++++++++++",
"++++++++++++++++++++++++++++++++++++++++++++++++"};
