/* XPM */
static char * metal_wall_xpm[] = {
"48 48 267 2",
"  	c #7743AD",
". 	c #7442AA",
"+ 	c #7240A6",
"@ 	c #703FA4",
"# 	c #6D3EA0",
"$ 	c #6B3C9C",
"% 	c #693B99",
"& 	c #673A96",
"* 	c #663995",
"= 	c #643892",
"- 	c #62378F",
"; 	c #61368D",
"> 	c #5F358B",
", 	c #5D3589",
"' 	c #5D3487",
") 	c #5C3486",
"! 	c #5B3384",
"~ 	c #5A3283",
"{ 	c #593282",
"] 	c #573180",
"^ 	c #56307E",
"/ 	c #55307D",
"( 	c #55307C",
"_ 	c #542F79",
": 	c #522E78",
"< 	c #512E77",
"[ 	c #512D76",
"} 	c #4F2D74",
"| 	c #4E2C73",
"1 	c #4E2B71",
"2 	c #4C2B6E",
"3 	c #4B2A6D",
"4 	c #4A296C",
"5 	c #49296B",
"6 	c #48296A",
"7 	c #472869",
"8 	c #472868",
"9 	c #462767",
"0 	c #462766",
"a 	c #452765",
"b 	c #7341A9",
"c 	c #7140A5",
"d 	c #7340A7",
"e 	c #703FA3",
"f 	c #6E3EA1",
"g 	c #6B3C9D",
"h 	c #6A3B9A",
"i 	c #683B98",
"j 	c #663993",
"k 	c #633790",
"l 	c #61378E",
"m 	c #5D3488",
"n 	c #5B3385",
"o 	c #583281",
"p 	c #542F7B",
"q 	c #532E79",
"r 	c #502D75",
"s 	c #4D2B70",
"t 	c #4B2A6E",
"u 	c #432662",
"v 	c #452664",
"w 	c #62378E",
"x 	c #61378D",
"y 	c #5E358A",
"z 	c #5D3486",
"A 	c #5A3383",
"B 	c #593281",
"C 	c #57317F",
"D 	c #56307D",
"E 	c #55307B",
"F 	c #542F7A",
"G 	c #512E76",
"H 	c #3E225A",
"I 	c #412560",
"J 	c #653993",
"K 	c #9252D5",
"L 	c #8B4ECA",
"M 	c #894DC7",
"N 	c #874CC4",
"O 	c #864BC3",
"P 	c #864CC4",
"Q 	c #854BC2",
"R 	c #844BC1",
"S 	c #844AC1",
"T 	c #834AC0",
"U 	c #834ABF",
"V 	c #834ABE",
"W 	c #8249BE",
"X 	c #8249BD",
"Y 	c #8249BC",
"Z 	c #8148BB",
"` 	c #8048BA",
" .	c #7F48B9",
"..	c #7F47B8",
"+.	c #7E47B8",
"@.	c #7D46B6",
"#.	c #7C46B5",
"$.	c #7B45B4",
"%.	c #7C45B3",
"&.	c #7B45B2",
"*.	c #7A45B2",
"=.	c #7A44B1",
"-.	c #7642AC",
";.	c #432561",
">.	c #40245E",
",.	c #6F3EA2",
"'.	c #8B4ECB",
").	c #7D47B7",
"!.	c #7B45B3",
"~.	c #7944B0",
"{.	c #7944AF",
"].	c #7843AF",
"^.	c #7843AE",
"/.	c #7643AC",
"(.	c #7542AB",
"_.	c #7441A9",
":.	c #7441A8",
"<.	c #713FA4",
"[.	c #6F3FA2",
"}.	c #6F3EA1",
"|.	c #6D3D9F",
"1.	c #6C3D9E",
"2.	c #6C3D9D",
"3.	c #6B3C9B",
"4.	c #683A97",
"5.	c #643891",
"6.	c #3E235C",
"7.	c #60368C",
"8.	c #7240A5",
"9.	c #6E3EA0",
"0.	c #6C3C9C",
"a.	c #6A3C9B",
"b.	c #673A97",
"c.	c #663A95",
"d.	c #653994",
"e.	c #653892",
"f.	c #5F358A",
"g.	c #5C3385",
"h.	c #40245C",
"i.	c #41245F",
"j.	c #874CC5",
"k.	c #63378F",
"l.	c #5F368B",
"m.	c #5E3589",
"n.	c #5E3588",
"o.	c #5E3487",
"p.	c #583180",
"q.	c #532E78",
"r.	c #3E2259",
"s.	c #3B2157",
"t.	c #56307C",
"u.	c #4E2C72",
"v.	c #583280",
"w.	c #57317E",
"x.	c #4A296B",
"y.	c #4F2C73",
"z.	c #4D2B6F",
"A.	c #3B2156",
"B.	c #3A2155",
"C.	c #472867",
"D.	c #4E2C71",
"E.	c #392054",
"F.	c #462765",
"G.	c #502D74",
"H.	c #3D2259",
"I.	c #864BC2",
"J.	c #422560",
"K.	c #41255F",
"L.	c #5A3282",
"M.	c #56317E",
"N.	c #381F51",
"O.	c #351E4E",
"P.	c #854BC1",
"Q.	c #4F2C72",
"R.	c #552F7B",
"S.	c #49296A",
"T.	c #3C2157",
"U.	c #371F52",
"V.	c #452764",
"W.	c #522E77",
"X.	c #4C2A6E",
"Y.	c #3F235C",
"Z.	c #3C2257",
"`.	c #3C2258",
" +	c #442663",
".+	c #382053",
"++	c #361E4F",
"@+	c #844AC0",
"#+	c #643890",
"$+	c #482867",
"%+	c #532F79",
"&+	c #341D4C",
"*+	c #392053",
"=+	c #321C49",
"-+	c #4A2A6C",
";+	c #351D4D",
">+	c #311C49",
",+	c #4C2B6F",
"'+	c #301B47",
")+	c #301B46",
"!+	c #6A3C9A",
"~+	c #311B48",
"{+	c #2F1A45",
"]+	c #8148BC",
"^+	c #2F1A44",
"/+	c #7341A7",
"(+	c #2E1A43",
"_+	c #7340A6",
":+	c #2D1942",
"<+	c #381F50",
"[+	c #2B1840",
"}+	c #2B183F",
"|+	c #7F47B9",
"1+	c #60368B",
"2+	c #371F50",
"3+	c #2C1941",
"4+	c #482869",
"5+	c #4E2B70",
"6+	c #29173C",
"7+	c #482969",
"8+	c #28173C",
"9+	c #7E47B7",
"0+	c #361E4E",
"a+	c #2A183E",
"b+	c #28163B",
"c+	c #472766",
"d+	c #28163A",
"e+	c #422561",
"f+	c #371E4F",
"g+	c #261538",
"h+	c #633890",
"i+	c #351E4D",
"j+	c #251537",
"k+	c #3F235B",
"l+	c #271639",
"m+	c #241435",
"n+	c #7D46B4",
"o+	c #6D3E9F",
"p+	c #442662",
"q+	c #41245E",
"r+	c #251436",
"s+	c #231434",
"t+	c #3F245D",
"u+	c #221333",
"v+	c #221331",
"w+	c #331D4B",
"x+	c #221332",
"y+	c #40245D",
"z+	c #2D1941",
"A+	c #211230",
"B+	c #3E235A",
"C+	c #331C4A",
"D+	c #392052",
"E+	c #311B46",
"F+	c #20122F",
"G+	c #432661",
"H+	c #1F112E",
"I+	c #29173B",
"J+	c #1F112D",
"K+	c #2C1840",
"L+	c #2C1940",
"M+	c #29173D",
"N+	c #261537",
"O+	c #251536",
"P+	c #1D102B",
"Q+	c #1E112C",
"R+	c #1C102A",
"  . + @ # $ % & * = - ; > , ' ) ! ~ { ] ^ / ( _ _ : < [ } | 1 2 2 3 4 4 5 6 6 7 8 8 8 9 9 0 0 a ",
"b c d d e f g h i j = k l > , m ' n ~ { o ^ ^ ( p q : < [ r | 1 1 s t t 3 4 4 5 6 6 6 7 7 9 u v ",
"c d n j w x > y , m z ) z n ! ~ A ~ { B B o C C C C ^ / D / / / E ( E p p F _ q q G | 5 9 H a I ",
"f + J K L M N O P Q Q R S T U V U W X X Y Z ` ` `  ...+.+.@.@.#.@.#.$.$.%.&.*.=.=.-.e * - ;.v >.",
"g ,.x '.W ).!.~.=.{.].^.  /.(.(.(.. _.b :.d + + + c c <.e [.}.f f |.|.|.1.2.$ 3.3.4.5.' ! >.u 6.",
"h 1.7.M )./.8.}.,.f 9.|.$ 3.0.3.$ a.h h % i b.& & * c.d.J e.5.k k w w x ; 7.> y f.g.{ D C h.i.H ",
"& h y j.!.8.3.* j k.7.l 5.k 5.5.5.= 5.k - w ; 7.7.l.f.m.n.o.' g.g.! A { p.C / q.< < : [ p r.h.s.",
"= & , O ~.}.e.; > t.u.[ 5.m , l.7.; 7.> f.m.m ' o.) g.! ~ { o v.p.C w./ q ) t.x.>.6 y.z.< A.H B.",
"- J , O ~.f j f.~ s C.s m.{ z n.l.; 7.> y m.n.' ' ) g.! A ~ o p.p.C w./ F A D.i.E.F.3 4 G.B.H.E.",
"; k z I.{.f - t.1 J.K.6 ~ / B n m.l.> y m.n.' ) ) g.! A L.o p.C ] M.D t.} } >.N.O.i.8 9 1 B.s.E.",
", 7.z P.^.9.y Q.8 i.0 9 C q D ~ m m.f., m ' z g.g.! A L.B o C C C ^ R.R.S.7 T.U.B.6.v V.t B.A.N.",
"' , n P.^.1.7.W.s 7 5 X.W.< / o ) n.m.m ' z n ! ! A ~ B p.] C ^ D t.F _ X.0 Y.Z.`.h.;. +3 .+E.++",
"! ' ! @+  g #+5.m.~ M.W.} W./ o ) ' , m ' g.! A A ~ { p.C C ^ D / E _ : < [ s 6 $+i.K. +3 .+U.O.",
"o ! ! T /.3.- m ~ D q < q._ M.{ n ' ' ' ) ! ~ { ~ { v.C C ^ t.( ( p %+[ Q.X.S.a v u  +a 2 .+N.&+",
"^ o L.U -.g 5.m.) o ^ D D w.o ~ n ' z n ! A { B o o ] C ^ / ( F F F q W.} z.3 7 8 0 C.8 1 *+O.=+",
"( ^ o U (.$ 5.> m n A o o { ~ ! g.z g.! A { o v.p.C C ^ / R.F %+F %+: W.} u.2 -+5 6 S.x.| *+;+>+",
"_ / { U (.$ e.7.l.m.n.) ) g.g.g.) ) g.! A { B v.v.C w.D / ( p %+F q.W.W.r | 1 ,+,+X.3 3 r *+&+>+",
": p B V . a.= ; ; l.m.n.' ' ' ) ) n ! A ~ o p.C C M.D t.E p _ %+%+W.< [ r } Q.D.1 s ,+X.r E.=+'+",
"[ : ] W _.h 5.7.7.l.y m., ' ) g.g.! A { o p.C C w./ t.( p F %+: W.[ G r } | u.1 D.s 2 2 r *+=+)+",
"} < ] X _.!+k l.> y , m ' ) g.! ! ~ { o p.C M./ D t.E p %+: : G [ r r } y.u.D.s s z.X.X.r .+~+{+",
"| r ^ ]+:.% - y y m.n.m ) g.! A A { o p.C M.^ t./ ( F F q W.< r r r } | Q.D.s ,+,+X.t 3 } U.'+^+",
"s u./ Z /+i l m.m.n.' z g.! ~ { { o p.C M.D / R.R.p _ %+: < [ r r } | D.D.s ,+t X.3 3 -+| N.'+(+",
"2 s ^ ` _+b.; m n.' ) g.! ~ { o { p.] C ^ t.E F R.F q : < [ r G.y.| u.D.s ,+X.3 3 4 x.-+Q.N.{+:+",
"5 t t.` + & 7.' ' ) g.! ~ { { p.p.C M./ D ( R.%+F q q.W.r r } y.| Q.1 s ,+X.3 -+-+5 5 5 Q.<+^+[+",
"5 3 t.` + & 7.' ' ) ) ! ~ { B p.o C C ^ / ( p F F q.W.< [ r } | | Q.1 s ,+X.3 -+-+5 S.4 Q.N.(+}+",
"8 5 R.|+c c.1+) ) g.! A { B p.C C M.D / ( F _ q q W.G r r } | Q.Q.D.s ,+X.3 4 x.x.6 6 5 1 2+3+}+",
"0 8 p +.c d.y n g.! A { B p.C w.M./ / ( p _ q : : W.r r } | Q.1 1 s ,+X.3 4 5 6 S.4+7 6 5+2+[+6+",
"v 9 F ..@ J , n ! A { B p.C C / / / R.p F q : W.G [ r } | Q.1 s s ,+t 3 4 5 6 4+4+8 8 7+s 2+}+8+",
" +v F 9+e e.n.! ~ { o o p.M.^ ( t.R.F F %+: < [ r r } | u.1 s ,+,+X.3 4 5 S.4+8 8 C.9 8 ,+0+a+b+",
"I  +q @.[.= ' { { o p.C M.M.t.( ( F %+%+q.< [ } r } | Q.D.s ,+X.X.3 -+x.S.4+4+$+8 c+c+8 X.0+6+d+",
">.e+q @.}.5.z o B p.] M.^ t.( F R.%+%+: W.r r } } y.Q.D.5+z.t 3 3 -+x.6 4+8 8 9 c+F.F.9 X.f+b+g+",
"h.>.W.#.f h+g.p.p.C M.D / ( p %+F q.q.W.G G.} | | u.1 s ,+t 3 -+-+x.6 4+4+C.0 0 0 V.V.c+3 i+d+j+",
"k+h.: @.9.k.g.v.o C M./ / E p _ _ : q.G [ r } | | Q.D.s ,+t 3 -+-+x.S.4+8 C.c+0 F.v a 9 t i+d+j+",
"H.k+q.#.# - ! C C C D t.E p F q.q : G r r } | Q.Q.1 s z.2 3 -+5 5 S.4+4+$+0 F.V.v  + +F.3 O.l+m+",
"s.H W.n+o+w ! M.C ^ ( R.F %+q.: : G [ } } y.Q.1 1 s z.X.3 -+x.5 S.4+7 C.0 F.V.p+ +u u V.3 ;+g+m+",
"A.s.[ %.|.; ~ M.D / E R.G G W.< < [ r } y.Q.1 s s z.X.3 4 4 S.7+6 8 C.0 F.V. + + +I J.v 5 &+j+m+",
"E.B.r !.1.7.p.p F } t 2 < } G.} r r } y.| 1 s s z.X.3 4 5 5 4+8 8 C.0 0 V.7+0 >.s.H.q+e+8 &+r+s+",
".+E.r &.g l./ ' ! y.7 u < s s u.| } | Q.D.5+z.X.2 3 -+5 S.7+7 C.C.9 0 a c+w.} u U.*+t+h.0 =+m+u+",
"N..+r &.$ > ( t.D.>.`.Y.z.S.3 X.1 D.u.1 s z.X.3 3 -+5 S.7+8 $+c+0 0 V. +F.y.K.;+)+++s.H. +~+s+v+",
"++N.G.=.$ m.q.-+>.2+N.`.6 V.4+4 z.1 D.s z.t 3 4 -+5 S.4+8 8 0 0 F.V.p+p+>.e+;+3+3+w+.+B.K.)+x+v+",
"++N.r =.3.y [ y+E.O.B.s.7 v $+5 ,+D.D.s ,+X.3 -+-+5 S.4+8 8 9 0 F.v  + +s..+)+z+(+=+N.E.>.)+u+A+",
";+++Q.-.i ) W.5 0 I >.t+i.;.0 6 X.s 5+z.t 3 -+5 x.S.7 8 C.c+0 V.v  +u K.B+B.++w+=+C+O.D+q+E+x+F+",
"&+O.-+e 5.{ < Q.t 8 V.e+K.p+C.6 3 ,+,+t X.3 -+5 S.6 7 8 9 9 0 F.a  +;.J.>.k+Z..+N.O.++E.q+)+v+F+",
"w+&+a * ' / [ s -+C.V. +v F.8 x.X.t X.2 X.3 -+5 x.S.7+6 7 C.9 c+9 F.v  +I h.H.B.E.D+E.`.G+E+v+H+",
">+w+2+- ! C R.< } 1 t 3 t ,+z.| r [ } r } | | u.D.D.s s ,+t t 3 3 3 -+S.8 F. +J.K.>.i.e+7 I+A+J+",
"~+>+j+w+E+{+(+(+:+3+}+a+a+}+}+K+3+L+}+[+}+}+a+a+a+a+a+M+M+6+6+8+8+8+8+8+l+l+g+j+j+j+N+O+d+P+H+Q+",
"'+{+)+)+{+(+:+[+[+a+6+8+b+b+d+l+d+g+j+j+j+m+m+s+m+s+u+u+u+v+v+A+v+v+A+A+F+F+F+H+F+A+F+F+H+J+Q+P+",
"{+(+:+[+}+a+8+8+b+d+l+g+j+r+r+m+m+s+s+s+u+x+x+v+v+v+A+F+A+F+H+J+J+J+J+Q+Q+P+P+P+Q+Q+P+P+R+P+P+R+"};
