/* XPM */
static char * player_xpm[] = {
"48 48 731 2",
"  	c #353434",
". 	c #6E6F6F",
"+ 	c #A7A9A8",
"@ 	c #838484",
"# 	c #4F5050",
"$ 	c #3B3A3B",
"% 	c #393939",
"& 	c #717B89",
"* 	c #A4AFBE",
"= 	c #B3BCC1",
"- 	c #949799",
"; 	c #585858",
"> 	c #434343",
", 	c #404246",
"' 	c #536F8E",
") 	c #5A7E9F",
"! 	c #8D9FB4",
"~ 	c #A4AEBB",
"{ 	c #52647B",
"] 	c #54565A",
"^ 	c #575A60",
"/ 	c #547496",
"( 	c #557AA0",
"_ 	c #5678A0",
": 	c #5779A0",
"< 	c #547597",
"[ 	c #596575",
"} 	c #4C4B4D",
"| 	c #363535",
"1 	c #4A5361",
"2 	c #57799D",
"3 	c #57799F",
"4 	c #577A9F",
"5 	c #959CA6",
"6 	c #636464",
"7 	c #484648",
"8 	c #4F657D",
"9 	c #5779A2",
"0 	c #5779A1",
"a 	c #5679A0",
"b 	c #718AA6",
"c 	c #B4BBC2",
"d 	c #727576",
"e 	c #4E5051",
"f 	c #557294",
"g 	c #547194",
"h 	c #526F90",
"i 	c #607FA0",
"j 	c #AAB6C0",
"k 	c #7E7F7F",
"l 	c #454545",
"m 	c #3F3E3E",
"n 	c #3C3B3B",
"o 	c #444344",
"p 	c #383737",
"q 	c #4F5965",
"r 	c #59789F",
"s 	c #59677A",
"t 	c #B3B5B5",
"u 	c #6C7988",
"v 	c #577A9D",
"w 	c #5D7DA2",
"x 	c #8E959F",
"y 	c #A4A3A3",
"z 	c #9E9E9E",
"A 	c #464646",
"B 	c #383838",
"C 	c #4D555D",
"D 	c #546A81",
"E 	c #484C4F",
"F 	c #424242",
"G 	c #566F89",
"H 	c #42576F",
"I 	c #1D1E1F",
"J 	c #BDBDBF",
"K 	c #4D6886",
"L 	c #B6B7B9",
"M 	c #717071",
"N 	c #222223",
"O 	c #454647",
"P 	c #4F657C",
"Q 	c #56779C",
"R 	c #5878A0",
"S 	c #537291",
"T 	c #536A7E",
"U 	c #525F6E",
"V 	c #484B50",
"W 	c #4B4B4B",
"X 	c #50565E",
"Y 	c #4E6A85",
"Z 	c #1D1D21",
"` 	c #585859",
" .	c #374659",
"..	c #415772",
"+.	c #686868",
"@.	c #1D1D1F",
"#.	c #3E3E3F",
"$.	c #4F4F50",
"%.	c #4F6176",
"&.	c #56779D",
"*.	c #4A515D",
"=.	c #49494C",
"-.	c #545B67",
";.	c #5E6E83",
">.	c #546880",
",.	c #5F6A76",
"'.	c #6A5D6F",
").	c #37353E",
"!.	c #1E1E1F",
"~.	c #1F2025",
"{.	c #2B313C",
"].	c #1C1E20",
"^.	c #21252B",
"/.	c #47505B",
"(.	c #544444",
"_.	c #413F3F",
":.	c #4C5B6B",
"<.	c #527092",
"[.	c #5F6A75",
"}.	c #4F5459",
"|.	c #343333",
"1.	c #474647",
"2.	c #B36E6F",
"3.	c #EE8282",
"4.	c #B26F71",
"5.	c #3D5062",
"6.	c #29303C",
"7.	c #313B4B",
"8.	c #303B4B",
"9.	c #4F6D8A",
"0.	c #926D7D",
"a.	c #E88582",
"b.	c #B47674",
"c.	c #393737",
"d.	c #504F4F",
"e.	c #484747",
"f.	c #576981",
"g.	c #56718D",
"h.	c #393838",
"i.	c #906364",
"j.	c #EE8382",
"k.	c #EF837F",
"l.	c #E8827D",
"m.	c #696478",
"n.	c #58789A",
"o.	c #56789C",
"p.	c #57779C",
"q.	c #586F90",
"r.	c #D77A79",
"s.	c #EF8582",
"t.	c #EE8481",
"u.	c #9C6968",
"v.	c #5C5C5C",
"w.	c #5D5C5C",
"x.	c #556C86",
"y.	c #5A708C",
"z.	c #CB7D79",
"A.	c #E68181",
"B.	c #C1716D",
"C.	c #634344",
"D.	c #353E4A",
"E.	c #3B4A61",
"F.	c #2E3645",
"G.	c #5B4043",
"H.	c #CE7975",
"I.	c #EF8482",
"J.	c #E38180",
"K.	c #575150",
"L.	c #3E3D3D",
"M.	c #545454",
"N.	c #616163",
"O.	c #444343",
"P.	c #464649",
"Q.	c #47484C",
"R.	c #5D7694",
"S.	c #586B82",
"T.	c #4D4D4E",
"U.	c #494848",
"V.	c #D2807E",
"W.	c #CD7A77",
"X.	c #615153",
"Y.	c #4D4B4C",
"Z.	c #484647",
"`.	c #545455",
" +	c #414142",
".+	c #4B4A4B",
"++	c #454444",
"@+	c #865E5F",
"#+	c #DC7E7B",
"$+	c #EF8484",
"%+	c #6E5355",
"&+	c #4B4A4C",
"*+	c #5F6264",
"=+	c #868C92",
"-+	c #4D4E4F",
";+	c #4E4E51",
">+	c #546C86",
",+	c #4D4E50",
"'+	c #4A494B",
")+	c #527295",
"!+	c #526176",
"~+	c #4A4D52",
"{+	c #4E657F",
"]+	c #5C5D5D",
"^+	c #A66C6B",
"/+	c #8E605E",
"(+	c #424344",
"_+	c #726465",
":+	c #E48181",
"<+	c #574E4D",
"[+	c #5A5B5D",
"}+	c #4E4D50",
"|+	c #6E7279",
"1+	c #9CA4B3",
"2+	c #636768",
"3+	c #434547",
"4+	c #597A9C",
"5+	c #4F657A",
"6+	c #474749",
"7+	c #4F5B6C",
"8+	c #46484C",
"9+	c #57728F",
"0+	c #594E4D",
"a+	c #775A59",
"b+	c #373737",
"c+	c #66696E",
"d+	c #7F8387",
"e+	c #606062",
"f+	c #AD6D6D",
"g+	c #414040",
"h+	c #6B6F73",
"i+	c #474748",
"j+	c #7E858E",
"k+	c #939BA7",
"l+	c #404042",
"m+	c #58779B",
"n+	c #577AA0",
"o+	c #50565B",
"p+	c #4B5056",
"q+	c #587A9F",
"r+	c #4D535F",
"s+	c #3E3E3E",
"t+	c #576C86",
"u+	c #577494",
"v+	c #4E4E4E",
"w+	c #808690",
"x+	c #949AAA",
"y+	c #444445",
"z+	c #4F4E4E",
"A+	c #685A5A",
"B+	c #464546",
"C+	c #7A8188",
"D+	c #959DAA",
"E+	c #6E7179",
"F+	c #525252",
"G+	c #556C8A",
"H+	c #567292",
"I+	c #48484A",
"J+	c #4B4A4A",
"K+	c #515761",
"L+	c #58769C",
"M+	c #4E5156",
"N+	c #4A4A4A",
"O+	c #596779",
"P+	c #58799C",
"Q+	c #667D99",
"R+	c #676B70",
"S+	c #A6B4C5",
"T+	c #595A5D",
"U+	c #787C7F",
"V+	c #505253",
"W+	c #474747",
"X+	c #878F9C",
"Y+	c #545457",
"Z+	c #9DA3B4",
"`+	c #403F40",
" @	c #606163",
".@	c #485D77",
"+@	c #526C8A",
"@@	c #546F8E",
"#@	c #526F8F",
"$@	c #4E6E8F",
"%@	c #536F8F",
"&@	c #536E8C",
"*@	c #4F6D8C",
"=@	c #4C5868",
"-@	c #646A71",
";@	c #434344",
">@	c #9DA6B3",
",@	c #67686C",
"'@	c #676C70",
")@	c #70747C",
"!@	c #A5B2C1",
"~@	c #8A939F",
"{@	c #686C70",
"]@	c #515B69",
"^@	c #575C65",
"/@	c #586576",
"(@	c #4A6685",
"_@	c #557BA0",
":@	c #567A9F",
"<@	c #567AA0",
"[@	c #475970",
"}@	c #464648",
"|@	c #6D717A",
"1@	c #9199A4",
"2@	c #585B60",
"3@	c #8B939F",
"4@	c #3E3D3E",
"5@	c #7D858C",
"6@	c #788390",
"7@	c #577799",
"8@	c #56677D",
"9@	c #47494D",
"0@	c #59677D",
"a@	c #70849D",
"b@	c #567AA1",
"c@	c #4D6178",
"d@	c #525E6E",
"e@	c #505051",
"f@	c #516276",
"g@	c #53565A",
"h@	c #7A8088",
"i@	c #99A3B4",
"j@	c #99A3B0",
"k@	c #5C5F66",
"l@	c #526E8C",
"m@	c #535E6C",
"n@	c #556375",
"o@	c #4A4E58",
"p@	c #73869F",
"q@	c #4C5969",
"r@	c #56687D",
"s@	c #494B4D",
"t@	c #4E4F52",
"u@	c #577597",
"v@	c #5A6F89",
"w@	c #89919D",
"x@	c #757C86",
"y@	c #4C4D4E",
"z@	c #525E6C",
"A@	c #626C73",
"B@	c #4F5154",
"C@	c #596A7B",
"D@	c #3D3C3C",
"E@	c #6E8197",
"F@	c #485566",
"G@	c #51575F",
"H@	c #515F73",
"I@	c #3B3A3A",
"J@	c #4E4F51",
"K@	c #4E6583",
"L@	c #5C7088",
"M@	c #4E4E4F",
"N@	c #484949",
"O@	c #626C77",
"P@	c #586575",
"Q@	c #4B4E56",
"R@	c #6A7A8D",
"S@	c #57789F",
"T@	c #5778A0",
"U@	c #4D5969",
"V@	c #57667C",
"W@	c #444549",
"X@	c #5C6773",
"Y@	c #56585C",
"Z@	c #50565F",
"`@	c #494A4C",
" #	c #506072",
".#	c #5E6B82",
"+#	c #486890",
"@#	c #426088",
"##	c #4D6C95",
"$#	c #37557D",
"%#	c #3B5881",
"&#	c #48668E",
"*#	c #545F6C",
"=#	c #4E535A",
"-#	c #586678",
";#	c #484C52",
">#	c #565D66",
",#	c #3A3939",
"'#	c #69727B",
")#	c #3D3E40",
"!#	c #576371",
"~#	c #4F545B",
"{#	c #405774",
"]#	c #4F6D95",
"^#	c #3A557E",
"/#	c #45628B",
"(#	c #4B6A92",
"_#	c #4D6D95",
":#	c #48658E",
"<#	c #5C6571",
"[#	c #546272",
"}#	c #4D4F54",
"|#	c #3A3A3A",
"1#	c #5C656F",
"2#	c #434443",
"3#	c #464749",
"4#	c #646E7B",
"5#	c #4B4B4F",
"6#	c #596A7D",
"7#	c #4E6888",
"8#	c #324E77",
"9#	c #54749D",
"0#	c #4C6C93",
"a#	c #416088",
"b#	c #56789F",
"c#	c #626771",
"d#	c #484A4D",
"e#	c #576678",
"f#	c #5A636E",
"g#	c #525557",
"h#	c #535B66",
"i#	c #505760",
"j#	c #4F5F72",
"k#	c #4B5057",
"l#	c #607894",
"m#	c #507199",
"n#	c #56779E",
"o#	c #56799F",
"p#	c #56789E",
"q#	c #666972",
"r#	c #556274",
"s#	c #52555C",
"t#	c #636971",
"u#	c #5E646E",
"v#	c #404040",
"w#	c #5B6977",
"x#	c #525458",
"y#	c #51657C",
"z#	c #5D758F",
"A#	c #517096",
"B#	c #547497",
"C#	c #527397",
"D#	c #527599",
"E#	c #577A9E",
"F#	c #587AA0",
"G#	c #3A414B",
"H#	c #556579",
"I#	c #373636",
"J#	c #424346",
"K#	c #515D6C",
"L#	c #4E5052",
"M#	c #4B6580",
"N#	c #5C7493",
"O#	c #5E6772",
"P#	c #536A86",
"Q#	c #45617A",
"R#	c #374F67",
"S#	c #486688",
"T#	c #425D7A",
"U#	c #496684",
"V#	c #436280",
"W#	c #547699",
"X#	c #585C61",
"Y#	c #627287",
"Z#	c #535660",
"`#	c #5B6471",
" $	c #577190",
".$	c #55687D",
"+$	c #53637A",
"@$	c #527596",
"#$	c #54769B",
"$$	c #496584",
"%$	c #4E6C8F",
"&$	c #3D5671",
"*$	c #435A77",
"=$	c #496886",
"-$	c #56616F",
";$	c #5B636F",
">$	c #5A738E",
",$	c #4D6887",
"'$	c #4C515B",
")$	c #576A81",
"!$	c #54779D",
"~$	c #53575D",
"{$	c #505F6D",
"]$	c #577AA1",
"^$	c #4F6F92",
"/$	c #54759C",
"($	c #517397",
"_$	c #4B6A8A",
":$	c #5F6B78",
"<$	c #57687C",
"[$	c #57789C",
"}$	c #46464A",
"|$	c #4F5866",
"1$	c #596F88",
"2$	c #3B3B3B",
"3$	c #5B6B81",
"4$	c #587AA1",
"5$	c #57789E",
"6$	c #55799D",
"7$	c #67727D",
"8$	c #484B4E",
"9$	c #547499",
"0$	c #536D8C",
"a$	c #525B64",
"b$	c #404143",
"c$	c #3C3C3D",
"d$	c #474A4F",
"e$	c #494B4E",
"f$	c #4C4E50",
"g$	c #3C3C3C",
"h$	c #49505B",
"i$	c #64717E",
"j$	c #5E758B",
"k$	c #536A87",
"l$	c #4D5A69",
"m$	c #586A81",
"n$	c #546479",
"o$	c #606D82",
"p$	c #6782A3",
"q$	c #677D95",
"r$	c #607388",
"s$	c #5B697C",
"t$	c #5E656A",
"u$	c #606367",
"v$	c #5E6165",
"w$	c #575B5F",
"x$	c #4C5156",
"y$	c #525960",
"z$	c #445669",
"A$	c #4F6D8F",
"B$	c #4A6989",
"C$	c #546B85",
"D$	c #54687C",
"E$	c #576879",
"F$	c #727F8E",
"G$	c #5E6E80",
"H$	c #586D83",
"I$	c #59708F",
"J$	c #496480",
"K$	c #4C6B8A",
"L$	c #517395",
"M$	c #537499",
"N$	c #517497",
"O$	c #55779B",
"P$	c #4A6684",
"Q$	c #506172",
"R$	c #434446",
"S$	c #484F53",
"T$	c #52565F",
"U$	c #525964",
"V$	c #657E99",
"W$	c #597AA0",
"X$	c #58799F",
"Y$	c #537699",
"Z$	c #537498",
"`$	c #547599",
" %	c #466584",
".%	c #55779C",
"+%	c #496683",
"@%	c #293E52",
"#%	c #3B4A58",
"$%	c #4D6581",
"%%	c #576777",
"&%	c #4F6B89",
"*%	c #536B87",
"=%	c #48637D",
"-%	c #56799C",
";%	c #526175",
">%	c #424345",
",%	c #3A393A",
"'%	c #464545",
")%	c #5C6B7B",
"!%	c #597695",
"~%	c #56799E",
"{%	c #557A9E",
"]%	c #466483",
"^%	c #567798",
"/%	c #44607D",
"(%	c #33495D",
"_%	c #53585D",
":%	c #444646",
"<%	c #4C5867",
"[%	c #4A4F55",
"}%	c #57626B",
"|%	c #505B69",
"1%	c #54718F",
"2%	c #54585E",
"3%	c #526B89",
"4%	c #56697A",
"5%	c #434546",
"6%	c #4A4C4F",
"7%	c #5B6777",
"8%	c #55799E",
"9%	c #6481A4",
"0%	c #6383A6",
"a%	c #486381",
"b%	c #547698",
"c%	c #55708C",
"d%	c #50575F",
"e%	c #5B6169",
"f%	c #353333",
"g%	c #494B4C",
"h%	c #444545",
"i%	c #505152",
"j%	c #4B4E51",
"k%	c #515B67",
"l%	c #484B4F",
"m%	c #536D8B",
"n%	c #454749",
"o%	c #434545",
"p%	c #4D565D",
"q%	c #5A6879",
"r%	c #516783",
"s%	c #4B698A",
"t%	c #517194",
"u%	c #7792B1",
"v%	c #B3C2D0",
"w%	c #C9D5DC",
"x%	c #93A5B6",
"y%	c #43627D",
"z%	c #55749A",
"A%	c #577595",
"B%	c #51565D",
"C%	c #4B5053",
"D%	c #516F89",
"E%	c #546C83",
"F%	c #4A4E50",
"G%	c #595E61",
"H%	c #545C62",
"I%	c #4C5661",
"J%	c #576064",
"K%	c #515255",
"L%	c #505255",
"M%	c #5A6671",
"N%	c #567398",
"O%	c #4B535B",
"P%	c #494E52",
"Q%	c #546E8B",
"R%	c #576F89",
"S%	c #454648",
"T%	c #3F3F40",
"U%	c #57687D",
"V%	c #55789C",
"W%	c #4F5A67",
"X%	c #3F4040",
"Y%	c #4E565E",
"Z%	c #557699",
"`%	c #546375",
" &	c #5C6165",
".&	c #576B81",
"+&	c #4F6276",
"@&	c #3D3F42",
"#&	c #5C6977",
"$&	c #566674",
"%&	c #596B80",
"&&	c #39393A",
"*&	c #56708C",
"=&	c #52575F",
"-&	c #4C555D",
";&	c #4D5B69",
">&	c #59718A",
",&	c #5B6269",
"'&	c #526F91",
")&	c #4C5660",
"!&	c #3C3D3E",
"~&	c #4E627A",
"{&	c #537496",
"]&	c #4C515C",
"^&	c #3F4041",
"/&	c #516A87",
"(&	c #5A7592",
"_&	c #57687A",
":&	c #48494B",
"<&	c #4F637B",
"[&	c #547091",
"}&	c #565D64",
"|&	c #547191",
"1&	c #547290",
"2&	c #4C5053",
"3&	c #494F58",
"4&	c #537494",
"5&	c #516F93",
"6&	c #556B89",
"7&	c #556981",
"8&	c #506E8E",
"9&	c #4E5E6D",
"0&	c #587088",
"a&	c #535C63",
"b&	c #5A687C",
"c&	c #505D6A",
"d&	c #5A6877",
"e&	c #44474A",
"f&	c #556B85",
"g&	c #53687F",
"h&	c #57779D",
"i&	c #526C84",
"j&	c #547494",
"k&	c #4F6985",
"l&	c #5A7393",
"m&	c #5D7088",
"n&	c #4B4D4F",
"o&	c #4A4B4E",
"p&	c #51677C",
"q&	c #4B5B67",
"r&	c #42464A",
"s&	c #556B84",
"t&	c #54779C",
"u&	c #596C87",
"v&	c #4A4D50",
"w&	c #59646E",
"x&	c #576B80",
"y&	c #58799B",
"z&	c #56789B",
"A&	c #5A6A7A",
"B&	c #546376",
"C&	c #58636A",
"D&	c #5A5F62",
"E&	c #4F5458",
"F&	c #424547",
"G&	c #576B84",
"H&	c #597088",
"I&	c #474A4D",
"J&	c #3E3F41",
"K&	c #565C61",
"L&	c #575D63",
"M&	c #516379",
"N&	c #4F5A69",
"O&	c #414243",
"P&	c #484C50",
"Q&	c #4B4C4F",
"R&	c #444648",
"S&	c #4D4F51",
"T&	c #404346",
"U&	c #494A4B",
"V&	c #5F6265",
"                                                          . + @ # $                             ",
"                                                          % & * = - ; >                         ",
"                                                            , ' ) ! ~ { ]                       ",
"                                                              ^ / ( _ : < [ }                   ",
"                                                              | 1 2 3 4 4 3 5 6                 ",
"                                                                7 8 4 9 0 a b c d               ",
"                                                                  e f 4 g h 3 i j k l m n       ",
"                                                          o p       q r s t u v w x y z A       ",
"                                                      B C D E l     F G H I J K / L M N o       ",
"                                                    O P Q R S T U V W X Y Z `  ...+.@.#.|       ",
"                                                    $.%.&.&.*.=.-.;.>.,.'.).!.~.{.].^./.(._.    ",
"                                                      :.<.[.}.    |.1.2.3.4.5.6.7.8.9.0.a.b.c.  ",
"                d.e.                                  f.g.h.        i.j.k.l.m.n.o.p.q.r.s.t.u.  ",
"                v.w.|                     p           x.y.        p z.t.A.B.C.D.E.F.G.H.I.I.J.K.",
"                L.M.N.O.                  P.Q.        R.S.      T.U.V.W.X.Y.Z.W `. +.+++@+#+$+%+",
"                e.&+*+=+-+                ;+>+,+    '+)+!+    ~+{+]+^+/+                (+_+:+<+",
"                [+}+  |+1+2+              3+4+5+B   6+2 7+  8+9+<.p 0+a+            b+c+d+e+f+g+",
"                h+i+    j+k+|             l+m+n+o+  p+q+r+s+t+3 u+  h.v+          l w+x+y+z+A+B+",
"                C+s+    D+E+              F+G+H+I+J+K+L+M+N+O+P+Q+|.              R+S+T+  ++U+V+",
"              W+X+T.  Y+Z+`+              |  @.@+@@@#@$@%@&@*@=@-@|.              ;@>@,@    '@)@",
"              N+!@~@{@]@^@                  /@(@_@:@a <@a 3 3 [@}@                  |@1@|   2@3@",
"              4@2@5@6@7@8@                9@0@a@( :@b@b@<@: 3 c@d@                  e@f@g@h@i@j@",
"                    k@l@m@                n@o@p@: : : : : : : q@r@s@                t@u@v@w@x@y@",
"                    p `.z@A@            B@C@D@E@R : : : : : 0 F@G@H@I@              J@K@L@M@    ",
"                        N@O@            P@Q@|.R@9 : : a S@T@0 U@h.V@W@              X@Y@;@      ",
"                          G@Z@        `@ #m |..#: +#@###$#%#&#*#  =#-#p           ;#>#          ",
"                          ,#'#)#      !#~#    {#]#^#&#/#(#_#:#<#  L.[#}#        |#1#2#          ",
"                            3#4#I@  5#6#|     7#8#9#0#a#b#: 0#c#    d#e#$       f#g#            ",
"                              h#i#  j#k#    |.l#m#: : n#o#0 p#q#      r#s#    t#u#              ",
"                              v#w#x#y#|     |.z#A#B#C#D#E#4 F#G#      8+H#I#J#K#B               ",
"                                L#M#N#O#p     P#Q#R#S#T#U#V#W#X#        Y#Z#`#e                 ",
"                                g+ $0 .$      +$@$#$$$%$&$*$=$-$      ;$>$,$'$                  ",
"                                  )$!$~$      {$q+]$^$/$($_$$$:$      <$a [$}$                  ",
"                                  |$1$2$      3$4$4$4$: o#5$6$7$      8$9$0$F                   ",
"a$b$                c$d$e$f$g$    =.h$  g$i$j$k$4$4$]$: : : : l$b+    I#m$n$                    ",
"o$p$q$r$s$t$u$v$w$x$y$z$A$B$C$D$E$F$G$H$I$J$S#K$L$M$N$O$: : 3 P$Q$R$    S$T$                    ",
"  U$V$W$4$X$Y$Z$`$&.3 : : 3 : : : : : : 0  %.%+%@%#%$%%%&%*%Q =%-%;%>%  ,%'%                    ",
"    I#)%!%)+~%3 <@{%: : : : 0 : : : : S@]%^%/%(%_%:%<%[%}%|%1%2%3%]$4%5%                        ",
"        6%M+7%' 8%o#: R : 0 : : 9%0%S@a%b%c%d%e%f%  g%h%i%j%k%  l%m%W$)$n%                      ",
"              o%p%q%r%s%t%5$u%v%w%x%y%z%A%B%  T.                  C%D%q+E%F%                    ",
"                    ,%G%H%I%J%K%L%M%b%N%O%                          P%Q%n+R%S%                  ",
"                                T%U%V%W%                    X%g$      Y%Z%`%b$                  ",
"                                3# &.&+&#.  @&#&b+          $&%&&&  ] *&.$=&-&                  ",
"                                ;&>&,&'&)&!&~&{&]&        ^&/&(&_&:&<&[&}&|&1&2&                ",
"                              3&4&5&6&7&8&9&0&a&b&        c&d&e&f&g&h&i&j&k&l&m&n&              ",
"                            o&p&q&r&s&t&X$u&3+  }%v&    R$w&S%  f$x&y&z&A&o%8$B&C&b+            ",
"                            D&E&    F&G&H&I&    J&K&    L&)#      6+M&N&O&    b+P&Q&            ",
"                            s+        R&S&        T&U&I#V&          D@                          "};
