/* XPM */
static char * player_xpm[] = {
"48 48 6 1",
" 	c #CB73FF",
".	c #5A1EBD",
"+	c #CA6EFF",
"@	c #CA6DFF",
"#	c #5800C7",
"$	c #696363",
"                                                ",
"                                                ",
"                                                ",
"                                                ",
"                                                ",
"                                                ",
"                                                ",
"                                                ",
"                                                ",
"                                                ",
"                                                ",
"                                                ",
"                                                ",
"                                                ",
"                                                ",
"           ..+++++@@##############..............",
"           ......####################...........",
"           ......######################.........",
"           .....########################........",
"           .....#########################.......",
"           .....#########################.......",
"           .....##########################......",
"           .....##########################......",
"           .....##########################......",
"           .....##########################......",
"           ......#########################......",
"           ......##########################.....",
"           ......##########################.....",
"           ......##########################.....",
"           ......##########################.....",
"           ......##########################.....",
"           ......##########################.....",
"           ......##########################.....",
"           ......##########################.....",
"           .......#########################.....",
"           .......#########################.....",
"           ........#######################......",
"           ..........#####################......",
"           .............##################......",
"           ................###############......",
"                  $$$$$$$                       ",
"                                                ",
"                                                ",
"                                                ",
"                                                ",
"                                                ",
"                                                ",
"                                                "};
