/* XPM */
static char * tile_floor_xpm[] = {
"48 48 455 2",
"  	c #0F0F0F",
". 	c #0C0C0C",
"+ 	c #0A0A0A",
"@ 	c #090909",
"# 	c #080808",
"$ 	c #161616",
"% 	c #202020",
"& 	c #1C1C1C",
"* 	c #060606",
"= 	c #050505",
"- 	c #040404",
"; 	c #111111",
"> 	c #191919",
", 	c #131313",
"' 	c #707070",
") 	c #696969",
"! 	c #616161",
"~ 	c #5A5A5A",
"{ 	c #545454",
"] 	c #6C6C6C",
"^ 	c #636363",
"/ 	c #575757",
"( 	c #4E4E4E",
"_ 	c #484848",
": 	c #070707",
"< 	c #0D0D0D",
"[ 	c #181818",
"} 	c #171818",
"| 	c #171817",
"1 	c #171717",
"2 	c #161716",
"3 	c #171616",
"4 	c #161516",
"5 	c #151516",
"6 	c #151515",
"7 	c #141514",
"8 	c #494949",
"9 	c #121212",
"0 	c #0E0E0E",
"a 	c #1C1C1D",
"b 	c #2B2B2B",
"c 	c #323232",
"d 	c #373838",
"e 	c #373737",
"f 	c #373736",
"g 	c #363637",
"h 	c #363636",
"i 	c #363536",
"j 	c #353536",
"k 	c #353535",
"l 	c #343535",
"m 	c #343435",
"n 	c #343434",
"o 	c #343433",
"p 	c #333334",
"q 	c #333333",
"r 	c #323332",
"s 	c #323231",
"t 	c #313231",
"u 	c #303131",
"v 	c #303030",
"w 	c #302F30",
"x 	c #2F302F",
"y 	c #262626",
"z 	c #1A1A1A",
"A 	c #101010",
"B 	c #414240",
"C 	c #4D4D4D",
"D 	c #555555",
"E 	c #555455",
"F 	c #545455",
"G 	c #535353",
"H 	c #535352",
"I 	c #525352",
"J 	c #525251",
"K 	c #515251",
"L 	c #505150",
"M 	c #505050",
"N 	c #4F4F50",
"O 	c #4F4F4E",
"P 	c #4D4C4C",
"Q 	c #4C4C4C",
"R 	c #4B4C4C",
"S 	c #4B4B4B",
"T 	c #4B4A4C",
"U 	c #4A4A4A",
"V 	c #484A49",
"W 	c #434343",
"X 	c #393839",
"Y 	c #4D4D4C",
"Z 	c #5B5C5B",
"` 	c #646464",
" .	c #636463",
"..	c #636362",
"+.	c #626262",
"@.	c #616261",
"#.	c #606261",
"$.	c #606160",
"%.	c #616061",
"&.	c #5F6060",
"*.	c #5F5E5E",
"=.	c #5E5E5E",
"-.	c #5D5E5D",
";.	c #5D5D5E",
">.	c #5D5D5C",
",.	c #5C5C5C",
"'.	c #5B5B5C",
").	c #5B5A5C",
"!.	c #5B5A5A",
"~.	c #595A59",
"{.	c #595959",
"].	c #585959",
"^.	c #595859",
"/.	c #585857",
"(.	c #575758",
"_.	c #575656",
":.	c #565557",
"<.	c #4E4E4D",
"[.	c #434243",
"}.	c #2A292A",
"|.	c #383738",
"1.	c #565555",
"2.	c #646364",
"3.	c #6C6C6B",
"4.	c #6B6B6B",
"5.	c #6A6A6A",
"6.	c #6A6A69",
"7.	c #686868",
"8.	c #686967",
"9.	c #676768",
"0.	c #676766",
"a.	c #666667",
"b.	c #666666",
"c.	c #656565",
"d.	c #656564",
"e.	c #646564",
"f.	c #646263",
"g.	c #626362",
"h.	c #616262",
"i.	c #605F60",
"j.	c #5F5F5F",
"k.	c #5E5F5F",
"l.	c #5D5D5D",
"m.	c #545554",
"n.	c #474848",
"o.	c #2D2D2E",
"p.	c #141413",
"q.	c #383737",
"r.	c #636364",
"s.	c #6C6B6B",
"t.	c #6A6B6B",
"u.	c #6A6B6A",
"v.	c #6A696A",
"w.	c #696A69",
"x.	c #696869",
"y.	c #676767",
"z.	c #656566",
"A.	c #646565",
"B.	c #656464",
"C.	c #646363",
"D.	c #636162",
"E.	c #616060",
"F.	c #60605F",
"G.	c #5F5F5E",
"H.	c #5F5E5F",
"I.	c #5F5D5E",
"J.	c #5E5D5D",
"K.	c #5D5C5D",
"L.	c #545453",
"M.	c #474748",
"N.	c #2D2D2D",
"O.	c #373637",
"P.	c #626264",
"Q.	c #6B6C6B",
"R.	c #6B6B6A",
"S.	c #696A6A",
"T.	c #696768",
"U.	c #686767",
"V.	c #666766",
"W.	c #676765",
"X.	c #656665",
"Y.	c #636565",
"Z.	c #636464",
"`.	c #626363",
" +	c #636263",
".+	c #616162",
"++	c #616160",
"@+	c #5F5F60",
"#+	c #5C5C5D",
"$+	c #535354",
"%+	c #474747",
"&+	c #181717",
"*+	c #6B6A6B",
"=+	c #6A6969",
"-+	c #696868",
";+	c #666767",
">+	c #646463",
",+	c #626162",
"'+	c #606060",
")+	c #5C5D5D",
"!+	c #5C5C5B",
"~+	c #535253",
"{+	c #464647",
"]+	c #535453",
"^+	c #676868",
"/+	c #676867",
"(+	c #666566",
"_+	c #656666",
":+	c #626263",
"<+	c #626261",
"[+	c #606161",
"}+	c #5F5E60",
"|+	c #5E5F5E",
"1+	c #5E5D5E",
"2+	c #5C5D5C",
"3+	c #5B5A5B",
"4+	c #464646",
"5+	c #666867",
"6+	c #676667",
"7+	c #646465",
"8+	c #5F605F",
"9+	c #5B5D5C",
"0+	c #5C5B5B",
"a+	c #5B5B5B",
"b+	c #5A5A5B",
"c+	c #535153",
"d+	c #464645",
"e+	c #2C2D2C",
"f+	c #69696A",
"g+	c #686968",
"h+	c #666665",
"i+	c #636261",
"j+	c #605F61",
"k+	c #5D5E5C",
"l+	c #5C5A5B",
"m+	c #5B5A59",
"n+	c #454645",
"o+	c #606061",
"p+	c #656465",
"q+	c #606162",
"r+	c #5E5E5F",
"s+	c #5E5E5D",
"t+	c #5A5B5B",
"u+	c #5A595A",
"v+	c #515051",
"w+	c #454545",
"x+	c #2C2C2C",
"y+	c #535252",
"z+	c #666464",
"A+	c #646365",
"B+	c #636262",
"C+	c #5B5C5D",
"D+	c #5A5B5A",
"E+	c #515050",
"F+	c #131312",
"G+	c #515252",
"H+	c #5D5E5E",
"I+	c #5D5C5C",
"J+	c #595858",
"K+	c #505051",
"L+	c #444445",
"M+	c #2C2C2B",
"N+	c #121213",
"O+	c #515151",
"P+	c #605F5F",
"Q+	c #5A5959",
"R+	c #585758",
"S+	c #4F504F",
"T+	c #444344",
"U+	c #2C2B2C",
"V+	c #121312",
"W+	c #343534",
"X+	c #505151",
"Y+	c #676567",
"Z+	c #666565",
"`+	c #636161",
" @	c #5C5B5C",
".@	c #5A5A59",
"+@	c #585759",
"@@	c #434344",
"#@	c #626161",
"$@	c #615F60",
"%@	c #5A5C5B",
"&@	c #595B5B",
"*@	c #585858",
"=@	c #585859",
"-@	c #575657",
";@	c #4E4E4F",
">@	c #444343",
",@	c #2B2B2A",
"'@	c #656365",
")@	c #565657",
"!@	c #424243",
"~@	c #2A2A2A",
"{@	c #636465",
"]@	c #5E605F",
"^@	c #5E5D5C",
"/@	c #5B5B5A",
"(@	c #595958",
"_@	c #575756",
":@	c #565656",
"<@	c #424242",
"[@	c #343333",
"}@	c #636264",
"|@	c #60615F",
"1@	c #59595A",
"2@	c #575857",
"3@	c #424142",
"4@	c #626061",
"5@	c #5C5E5D",
"6@	c #5B5C5C",
"7@	c #5B595B",
"8@	c #595759",
"9@	c #565757",
"0@	c #555656",
"a@	c #424141",
"b@	c #333233",
"c@	c #4F4F4F",
"d@	c #565556",
"e@	c #545555",
"f@	c #4C4D4D",
"g@	c #414141",
"h@	c #292929",
"i@	c #545556",
"j@	c #535454",
"k@	c #4C4C4D",
"l@	c #333332",
"m@	c #4E4D4E",
"n@	c #636361",
"o@	c #616361",
"p@	c #595758",
"q@	c #555657",
"r@	c #565655",
"s@	c #555554",
"t@	c #545355",
"u@	c #545353",
"v@	c #414040",
"w@	c #111211",
"x@	c #4E4D4D",
"y@	c #595A5A",
"z@	c #555755",
"A@	c #525354",
"B@	c #4C4C4B",
"C@	c #41403F",
"D@	c #151616",
"E@	c #4D4C4D",
"F@	c #5A5B5C",
"G@	c #555655",
"H@	c #555654",
"I@	c #525252",
"J@	c #4B4B4A",
"K@	c #3F403F",
"L@	c #161515",
"M@	c #5E5C5D",
"N@	c #585958",
"O@	c #525253",
"P@	c #4B4A4B",
"Q@	c #3F3E3F",
"R@	c #292829",
"S@	c #323131",
"T@	c #545354",
"U@	c #525453",
"V@	c #525152",
"W@	c #282828",
"X@	c #5D5F5E",
"Y@	c #5C5D5B",
"Z@	c #545655",
"`@	c #555354",
" #	c #515152",
".#	c #494A49",
"+#	c #3E3E3F",
"@#	c #272828",
"##	c #313030",
"$#	c #59585A",
"%#	c #575858",
"&#	c #585757",
"*#	c #565755",
"=#	c #515352",
"-#	c #494948",
";#	c #3D3D3D",
">#	c #272727",
",#	c #4B4C4B",
"'#	c #555556",
")#	c #545553",
"!#	c #525353",
"~#	c #525151",
"{#	c #484849",
"]#	c #111110",
"^#	c #4A4B4A",
"/#	c #5B5C5A",
"(#	c #5A595B",
"_#	c #595A58",
":#	c #565756",
"<#	c #555756",
"[#	c #525051",
"}#	c #504F4F",
"|#	c #494847",
"1#	c #262727",
"2#	c #111011",
"3#	c #4A4B4B",
"4#	c #5F5E5D",
"5#	c #575556",
"6#	c #50504F",
"7#	c #4E4F4F",
"8#	c #474847",
"9#	c #3D3C3D",
"0#	c #262726",
"a#	c #585657",
"b#	c #515250",
"c#	c #4F5050",
"d#	c #4E4F4E",
"e#	c #575856",
"f#	c #565758",
"g#	c #504F50",
"h#	c #4F4E4F",
"i#	c #464746",
"j#	c #3C3C3C",
"k#	c #30302F",
"l#	c #4A4949",
"m#	c #4D4E4D",
"n#	c #525351",
"o#	c #4F4E4E",
"p#	c #4D4E4E",
"q#	c #4C4B4C",
"r#	c #4B494A",
"s#	c #4A494A",
"t#	c #49494A",
"u#	c #484748",
"v#	c #464546",
"w#	c #403F40",
"x#	c #222222",
"y#	c #393939",
"z#	c #484747",
"A#	c #474746",
"B#	c #464545",
"C#	c #444545",
"D#	c #454445",
"E#	c #434342",
"F#	c #414140",
"G#	c #414041",
"H#	c #3F3F3E",
"I#	c #3E3E3E",
"J#	c #3D3E3D",
"K#	c #2C2D2D",
"L#	c #1D1D1D",
"M#	c #2D2C2D",
"N#	c #2B2A2B",
"O#	c #29292A",
"P#	c #272827",
"Q#	c #262627",
"R#	c #141414",
"S#	c #141314",
"T#	c #131213",
"U#	c #121111",
"V#	c #101110",
"  . + @ @ # # # # # # # # # # # # # # # # # # # # # # # # # # # # # # # # # # # # # #   $ % & $ ",
". # * = - - - - - - - - - - - - - - - - - - - - - - - - - - - - - - - - - - - - - - - @ ; & > , ",
"+ * ' ' ' ' ' ' ' ' ' ' ' ' ' ' ' ' ' ' ' ' ' ' ' ' ' ' ' ' ' ' ' ' ' ' ' ' ' ' ' ) ! ~ { { $ ; ",
"@ = ' ' ' ' ' ' ' ' ' ' ' ' ' ' ' ' ' ' ' ' ' ' ' ' ' ' ' ' ' ' ' ' ' ' ' ' ' ' ] ^ / ( _ _ ,   ",
"@ - ' ' : < , $ [ [ } | 1 1 1 1 1 1 1 1 1 2 3 $ $ $ $ $ $ 4 5 5 6 6 6 6 6 6 6 7 , ; < + 8 8 9 0 ",
"# - ' ' < a b c d e f g h i i j k k l m n n o p q q q r c c s t u v v v v v w x b y z 0 8 8 A 0 ",
"# - ' ' , b B C D E F { G G G H I J K L L M M M N O ( ( C C P Q Q R S T U U 8 V W X y A 8 8 A   ",
"# - ' ' $ c Y Z `  ...+.@.#.$.%.$.&.*.=.-.;.>.,.,.'.).!.~ ~.{.{.].^./.(./ _.:.D <.[.}.9 8 8 A   ",
"# - ' ' [ |.1.2.] ] 3.4.5.6.) ) 7.8.9.0.a.b.c.d.e.2.f...g.h.#.! $.i.j.k.=.=.-.l.m.n.o.p.8 8 ;   ",
"# - ' ' [ q.E r.s.4.t.u.v.w.x.x.7.y.y.b.b.z.A.B.` C.^ D.+.@.! E.F.i.G.H.I.J.K.K.L.M.N., 8 8 ;   ",
"# - ' ' [ O.{ P.Q.R.5.v.S.x.T.U.9.V.W.z.X.c.Y.Z.`. +`..+! #.++F.@+G.*.=.l.K.,.#+$+%+N., 8 8 ;   ",
"# - ' ' &+O.{ +.4.*+5.=+x.-+7.U.;+V.X.X.c.e.>+r. +g.,+@.%.$.'+j.H.H.=.J.)+!+!+Z ~+{+N., 8 8 ;   ",
"# - ' ' &+h ]+h.*+v.=+) -+^+/+y.a.(+_+A.` ` ^  +:+<+@.++[+i.j.}+|+1+J.2+2+,.Z 3+~+4+N., 8 8 ;   ",
"# - ' ' 1 h G @.6.) ) -+7.5+6+V._+X.c.7+2. .`.+.+.,+! $.8+j.j.H.=.-.l.,.9+0+a+b+c+d+e+, 8 8 ;   ",
"# - ' ' 1 h G ! f+g+g+^+/+y.a.h+z.A.e.>+C.`.`.i+.+++E.j+j.|+|+=.k+#+#+!+Z l+!.m+K n+e+, 8 8 ;   ",
"# - ' ' 1 i H o+) 7.^+^+y.b.h+z.p+e.2.^ ..g.+.,+q+o+F.@+j.r+1+s+l.2+,.0+t+!.~ u+v+w+x+, 8 8 ;   ",
"# - ' ' 1 k y+F.7.^+/+y.b.(+X.z+` A+^ `.B+h..+#.'+F.i.j.r+=.l.;.#+C+a+a+D+u+~.].E+w+x+F+8 8 ;   ",
"# - ' ' 1 k G+@+^+/+6+b.(+c.p+B.` 2.^ :++.@.! %.&.@+j.|+H+-.2+I+,.a+a+D+~ ~.{.J+K+L+M+N+8 8 ;   ",
"# - ' ' 1 m O+k.9.;+6+b.z.c.e.` ^ ..:+h.h.%.$.'+P+H.|+1+-.>.#+2+Z a+b+~ Q+{.^.R+S+T+U+V+8 8 ;   ",
"# - ' ' 1 W+X+|+y.Y+(+Z+p+` >+2.`. +`+@.++E.'+i.j.|+*.;.l.2+!+ @a+D+~ .@].J++@/ O @@b 9 8 8 ;   ",
"# - ' ' 1 n E+s+6+b.c.A.B.A+C.f.+.h.#@! o+$@@+j.|+=.-.l.>.!+%@Z &@.@~.^.*@=@R+-@;@>@,@9 8 8 ;   ",
"# - ' ' 1 n M ;._+X.d.'@2.>+^ g.@..+! $.'+P+H.|+s+1+)+2+,.Z 3+b+~ {.{.^.*@/./ )@( !@~@9 8 8 ;   ",
"# - ' ' $ n M >.c.z+{@` r...+.h.! ++++'+]@j.=.=.J.^@2+ @0+/@b+D+~.(@*@*@(./ _@:@( <@~@9 8 8 ;   ",
"# - ' ' $ [@M K.p+p+>+^ }@B+:+#@++|@'+i.j.H.s+J.)+I+,.'.t+D+m+1@^.^./.2@/ -@:@1.( 3@~@9 8 8 ;   ",
"# - ' ' $ q N  @7+Z. . ++.<+! 4@$.j+j.j.|+1+-.5@2+6@0+3+!.7@1@{.8@R+/ 9@-@0@0@D C a@}.9 8 8 ;   ",
"# - ' ' $ b@c@Z Z.r.g.g.h.! ++o+$@i.j.=.|+5@>.I+9+0+/@3+~ .@{.^./.(./ 9@d@d@e@F f@g@h@9 8 8 ;   ",
"# - ' ' $ q ;@D+C...:++.#@++$.'+F.j.=.H+J.l.2+ @Z a+/@.@Q+{.=@/.2@/ _@:@0@i@e@j@k@g@h@9 8 8 ;   ",
"# - ' ' $ l@m@3+}@n@o@<+%.$.'+@+k.H.s+-.>.,.,.Z a+!..@~.{.].p@/./ _.q@r@D s@t@u@Q v@h@w@8 8 ;   ",
"# - ' ' $ r x@y@g.+.! [+'+i.i.j.k.=.l.l.#+,.'.a+b+.@1@{.*@*@2@9@:@z@r@s@{ { u@A@B@C@h@; 8 8 ;   ",
"# - ' ' D@c E@Q+<+.+#.o+'+@+k.*.H+;.l.2+!+'.F@D+~ .@{.^.*@2@9@-@:@G@H@F L.j@G I@J@K@h@; 8 8 ;   ",
"# - ' ' L@c f@{.@.%.E.i.j.j.=.=.;.M@2+6@0+'.!.u+1@{.N@*@(./ _@:@d@D F { $+H O@I@P@Q@R@; 8 8 ;   ",
"# - ' ' 6 S@P {..+o+'+8+j.=.s+l.)+K.!+'.'.~ ~ Q+].N@*@/ / _.:@1.D F L.T@U@H V@V@U Q@W@; 8 8 ;   ",
"# - ' ' 6 u Q {.E.'+P+j.X@1+l.5@Y@,. @a+3+~ .@{.N@p@/ _@-@:@d@Z@s@`@]+G H V@ #X+.#+#@#; 8 8 ;   ",
"# - ' ' 6 ##R J+F.8+G.r+1+1+K.I+6@a+D+D+~ u+$#N@%#&#/ )@*#1.s@m.F L.]+y+=#V@O+v+-#;#>#; 8 8 ;   ",
"# - ' ' 6 v ,#R+8+j.*.=.J.l.I+,. @a+t+D+u+^.N@=@R+/ _@:@'#D { )#{ !#~+I ~#K X+M {#;#>#]#8 8 ;   ",
"# - ' ' 6 v ^#R+]@H.=.1+l.,.!+Z /#D+(#~._#=@*@R+/ :#<#1.D F { u@G O@J G+[#v+M }#|#;#1#2#8 8 ;   ",
"# - ' ' 6 v 3#/ r+4#1+l.K.I+'.Z b+u+{.].N@J+(.-@:#5#d@E m.T@$+T@I@I J ~#L M 6#7#8#9#0#A 8 8 ;   ",
"# - ' ' 6 v U :#=.;.)+>.,.!+/@!..@~.{.^.%#(.a#)@0@r@D m.{ L.!#O@y+J b#L M c#c@d#%+9#y A 8 8 ;   ",
"# - ' ' 6 w .#d@H+)+,.6@'./@D+y@u+{.].p@e#f#:#:@1.s@)#{ L.G y+I@~#b#L g#S+c@h#( i#j#y A 8 8 ;   ",
"# - ' ' 6 k#l#1.l.K.Y@0+/@~ ~ ~.{.J+*@*@a#:#0@d@D m.{ u@G y+I@G+O+L K+6#c@d#( m#4+j#y A 8 8 ;   ",
"# - ' ] , b W m@E T@]+I y+n#I@O+M g#S+S+d#o#( ( p#C P k@q#J@3#r#s#t#_ |#u#8#4+v#w#j x#  8 8 ;   ",
"# - ) ^ ; y y#<@_ z#A#i#4+B#B#w+C#D#L+>@W E#<@3@g@g@F#G#w#w#H#I#I#I#J#;#;#j#j#j#j K#L#< 8 8 ;   ",
"# - ! / < z y ~@o.o.N.N.N.M#M#x+x+U+U+b N#~@~@~@O#h@h@h@h@h@R@W@P#>#>#>#Q#y y y x#L#, @ 8 8 ;   ",
"  @ ~ ( + 0 A 9 R#S#, , , , , , T#T#9 9 9 9 9 9 9 9 9 U#; ; ; ; ; ; ]#V#A A A A   < @ = 8 8 , A ",
"$ ; { _ 8 8 8 8 8 8 8 8 8 8 8 8 8 8 8 8 8 8 8 8 8 8 8 8 8 8 8 8 8 8 8 8 8 8 8 8 8 8 8 8 8 8 R#A ",
"% & { _ 8 8 8 8 8 8 8 8 8 8 8 8 8 8 8 8 8 8 8 8 8 8 8 8 8 8 8 8 8 8 8 8 8 8 8 8 8 8 8 8 8 8 6 0 ",
"L#z 1 R#9 ; ; ; 9 9 9 9 9 9 9 9 9 9 9 9 9 9 9 9 9 9 9 9 9 9 9 9 9 9 9 9 9 9 9 9 9 9 9 R#6 $ ; < ",
"> 1 R#9 ; ; 9 9 9 9 9 9 9 9 9 9 9 9 9 9 9 9 9 9 9 9 9 9 9 9 9 9 9 9 9 9 9 9 9 9 9 9 9 , 9 9   < "};
