/* XPM */
static char * void_xpm[] = {
"48 48 5 1",
" 	c #000000",
".	c #270B64",
"+	c #39138A",
"@	c #481BAD",
"#	c #5923D1",
"                                                ",
"                                                ",
"      ......                                    ",
"     ..++++..                       ......      ",
"    ..++@@++..                     ..++++..     ",
"    .++@##@++.                    ..++@@++..    ",
"    .+@####@+.                    .++@##@++.    ",
"    .+@####@+.                    .+@####@+.    ",
"    .++@##@++.                    .+@####@+.    ",
"    ..++@@++..                    .++@##@++.    ",
"     ..++++..                     ..++@@++..    ",
"      ......                       ..++++..     ",
"                                    ......      ",
"                                                ",
"                                                ",
"                                                ",
"                                                ",
"                                                ",
"                     ......                     ",
"                    ..++++..                    ",
"                   ..++@@++..                   ",
"                   .++@##@++.                   ",
"                   .+@####@+.                   ",
"                   .+@####@+.                   ",
"                   .++@##@++.                   ",
"                   ..++@@++..                   ",
"                    ..++++..                    ",
"                     ......                     ",
"                                                ",
"                                                ",
"                                                ",
"                                                ",
"                                                ",
"                                                ",
"                                                ",
"      ......                        ......      ",
"     ..++++..                      ..++++..     ",
"    ..++@@++..                    ..++@@++..    ",
"    .++@##@++.                    .++@##@++.    ",
"    .+@####@+.                    .+@####@+.    ",
"    .+@####@+.                    .+@####@+.    ",
"    .++@##@++.                    .++@##@++.    ",
"    ..++@@++..                    ..++@@++..    ",
"     ..++++..                      ..++++..     ",
"      ......                        ......      ",
"                                                ",
"                                                ",
"                                                "};
